<svg xmlns="http://www.w3.org/2000/svg" version="1.2" width="81" height="60" viewBox="0 0 170 165" preserveAspectRatio="true">
  <g transform="matrix(1.57375 0 0 1.57375 -52.396 -15.488)">
    <circle cx="36" cy="54" r="22" transform="matrix(1.47762 0 0 1.5065 -3.122 -2.435)" fill="none" stroke="#de2c68" stroke-width="1.14544892"/>
    <circle cx="74" cy="44" r="22" transform="matrix(1.59505 0 0 1.62233 -10.072 -9.178)" fill="none" stroke="#de2c68" stroke-width="1.06239557"/>
    <circle cx="74" cy="44" r="29" transform="matrix(1.58313 0 0 1.59864 -9.34 -8.136)" fill="none" stroke="#de2c68" stroke-width="5.81192684"/>
    <path fill="#fc3" d="M42.23 62.95h-7.247l5.798 5.497H29.187v5.495H40.78l-5.797 5.495h7.247l8.696-8.243M117.514 85.333l-9.095-9.414h19.706v-9.414H108.42l9.094-9.414h-12.127l-13.644 14.12 13.644 14.12"/>
  </g>
</svg>
